<svg width="20" height="20" viewBox="0 0 20 20" fill="none" xmlns="http://www.w3.org/2000/svg">
<path fill-rule="evenodd" clip-rule="evenodd" d="M13.0892 7.74408C13.4146 8.06952 13.4146 8.59717 13.0892 8.92258L9.75588 12.2559C9.43046 12.5813 8.90279 12.5813 8.57738 12.2559L6.9107 10.5893C6.58527 10.2638 6.58527 9.73617 6.9107 9.41075C7.23614 9.08533 7.76378 9.08533 8.08922 9.41075L9.16663 10.4882L11.9107 7.74408C12.2361 7.41864 12.7638 7.41864 13.0892 7.74408Z" fill="#545454"/>
<path fill-rule="evenodd" clip-rule="evenodd" d="M9.99996 3.33317C6.31806 3.33317 3.33329 6.31794 3.33329 9.99984C3.33329 13.6818 6.31806 16.6665 9.99996 16.6665C13.6819 16.6665 16.6666 13.6818 16.6666 9.99984C16.6666 6.31794 13.6819 3.33317 9.99996 3.33317ZM1.66663 9.99984C1.66663 5.39746 5.39758 1.6665 9.99996 1.6665C14.6023 1.6665 18.3333 5.39746 18.3333 9.99984C18.3333 14.6022 14.6023 18.3332 9.99996 18.3332C5.39758 18.3332 1.66663 14.6022 1.66663 9.99984Z" fill="#545454"/>
</svg>
