<svg width="87" height="20" viewBox="0 0 87 20" fill="none" xmlns="http://www.w3.org/2000/svg">
<path d="M9.73408 11.7577H6.10719L3.26624 6.72269V11.7647H0V0H3.26624V4.70588L5.94388 0H9.57077L6.16843 5.71428L9.73408 11.7577Z" fill="black"/>
<path d="M18.5791 3.52942H21.7145L19.3697 11.7647H16.3549L15.3499 7.89413L14.345 11.7647H11.3302L8.98535 3.52942H12.1207L13.052 8.09314L14.211 3.52942H16.4621L17.6177 8.09314L18.5791 3.52942Z" fill="black"/>
<path d="M22.8376 11.7647V3.52942H25.8327V11.7647H22.8376Z" fill="black"/>
<path d="M35.9412 11.7647H32.5648L31.2614 9.9194L29.9478 11.7613H26.5815L29.5851 7.54931L26.7115 3.52942H30.0777L31.2614 5.19294L32.4416 3.52942H35.8078L32.9513 7.54931L35.9412 11.7647Z" fill="black"/>
<path d="M54.3821 3.13935C54.9308 3.1207 55.4767 3.22642 55.9799 3.4488C56.4831 3.67118 56.9309 4.00459 57.2906 4.42468C58.0272 5.26412 58.4246 6.35368 58.4037 7.47646C58.4037 7.52114 58.4037 7.58644 58.4037 7.67579C58.4037 7.76514 58.4037 7.82701 58.4037 7.87168H51.0087C51.0759 8.73333 51.47 9.53514 52.1083 10.109C52.6724 10.5733 53.3576 10.8617 54.0806 10.9392C54.8035 11.0167 55.5331 10.8799 56.1808 10.5454C56.6441 10.2958 57.0278 9.91796 57.2872 9.456L58.0033 9.88559C57.6605 10.469 57.1647 10.9448 56.5711 11.2603C55.9173 11.603 55.1895 11.7755 54.4534 11.762C53.8858 11.7825 53.32 11.6855 52.7908 11.4769C52.2615 11.2683 51.7798 10.9525 51.3752 10.5489C50.9756 10.1446 50.6624 9.66137 50.4551 9.12925C50.2478 8.59714 50.1509 8.02752 50.1704 7.45584C50.1541 6.88922 50.2502 6.32504 50.4531 5.79671C50.656 5.26838 50.9614 4.78663 51.3515 4.38C51.7446 3.97243 52.2168 3.65178 52.7385 3.43825C53.2601 3.22472 53.8197 3.12294 54.3821 3.13935ZM54.3821 3.9298C53.5278 3.90446 52.6974 4.21763 52.0675 4.80271C51.4465 5.39494 51.0684 6.2023 51.0087 7.06406H57.5587C57.5194 6.19016 57.1486 5.36532 56.5236 4.76147C55.9416 4.21616 55.1749 3.91838 54.3821 3.9298Z" fill="black"/>
<path d="M67.3314 0H68.1385V11.5803H67.3314V9.66405C67.0091 10.301 66.5199 10.8333 65.9188 11.2012C65.2967 11.58 64.5842 11.7745 63.8606 11.763C63.2974 11.7793 62.7368 11.6797 62.2118 11.4701C61.6868 11.2605 61.2082 10.9451 60.8042 10.5427C60.4002 10.1402 60.0791 9.65882 59.8598 9.12696C59.6406 8.59511 59.5276 8.02359 59.5276 7.44621C59.5276 6.86883 59.6406 6.29731 59.8598 5.76546C60.0791 5.2336 60.4002 4.75221 60.8042 4.34975C61.2082 3.94728 61.6868 3.63193 62.2118 3.42233C62.7368 3.21272 63.2974 3.11313 63.8606 3.12944C64.5842 3.11797 65.2967 3.31245 65.9188 3.69123C66.5206 4.05826 67.01 4.59078 67.3314 5.22837V0ZM61.4795 9.94322C62.1254 10.6009 62.9989 10.9701 63.9094 10.9701C64.8199 10.9701 65.6934 10.6009 66.3392 9.94322C66.9754 9.27556 67.3316 8.37939 67.3316 7.44621C67.3316 6.51303 66.9754 5.61686 66.3392 4.94921C65.6934 4.2915 64.8199 3.92235 63.9094 3.92235C62.9989 3.92235 62.1254 4.2915 61.4795 4.94921C60.8433 5.61686 60.4872 6.51303 60.4872 7.44621C60.4872 8.37939 60.8433 9.27556 61.4795 9.94322Z" fill="black"/>
<path d="M70.7593 11.7647V3.52942H71.5081V11.7647H70.7593Z" fill="black"/>
<path d="M48.2056 4.39757C47.9018 4.0967 47.5416 3.86485 47.1476 3.71666C46.7537 3.56847 46.3346 3.50716 45.9168 3.5366C44.907 3.5366 44.4963 3.6877 44.052 3.9829C43.7046 4.21858 43.4216 4.54428 43.2307 4.92821C43.0377 4.54477 42.7538 4.21933 42.4061 3.9829C41.9618 3.6877 41.5309 3.5366 40.5784 3.5366C39.5113 3.5366 38.791 3.82476 38.2525 4.39757C37.971 4.72309 37.7546 5.10398 37.6158 5.51793C37.4771 5.93188 37.4189 6.37057 37.4446 6.8083V12.1569H38.2659V9.05385C38.2659 8.29831 38.2289 7.5287 38.2659 6.77315C38.2817 6.26206 38.4306 5.76513 38.6968 5.33585C39.0664 4.83573 39.6089 4.50651 40.2081 4.41865C40.6184 4.33384 41.0434 4.37285 41.4333 4.53111C41.7905 4.69857 42.0934 4.97084 42.3051 5.31477C42.6614 5.91793 42.8415 6.61648 42.8235 7.32488V12.1569H43.6515V9.34553C43.6515 8.25262 43.5168 7.05429 43.8433 6.00706C43.9505 5.66911 44.1289 5.36056 44.3655 5.10417C44.602 4.84778 44.8906 4.65007 45.2101 4.52563C45.5296 4.40119 45.8717 4.35319 46.2113 4.38515C46.5509 4.41712 46.8793 4.52824 47.1723 4.71033C47.4529 4.92258 47.6879 5.19395 47.8618 5.5069C48.0357 5.81986 48.1448 6.16743 48.1821 6.52716C48.2662 7.44754 48.2831 8.37328 48.2326 9.29633V12.1428H49.0404V6.8083C49.0625 6.36863 49 5.92879 48.8567 5.51474C48.7133 5.1007 48.4919 4.72083 48.2056 4.39757Z" fill="black"/>
<path fill-rule="evenodd" clip-rule="evenodd" d="M81.2421 9.88269C80.4667 11.019 79.163 11.7647 77.6855 11.7647C75.3076 11.7647 73.38 9.83338 73.38 7.45098C73.38 5.06857 75.3076 3.13725 77.6855 3.13725C80.0633 3.13725 81.9909 5.06857 81.9909 7.45098V11.7647H81.2421V9.88269ZM81.2421 7.45098C81.2421 9.40022 79.6498 10.9804 77.6855 10.9804C75.7212 10.9804 74.1288 9.40022 74.1288 7.45098C74.1288 5.50174 75.7212 3.92157 77.6855 3.92157C79.6498 3.92157 81.2421 5.50174 81.2421 7.45098Z" fill="black"/>
<path d="M2.44861 15.6863H3.84181C4.68237 15.6863 5.10498 16.0149 5.10498 16.677C5.12145 16.8631 5.07284 17.0491 4.96761 17.2027C4.86239 17.3563 4.70722 17.4677 4.52912 17.5175C4.75193 17.5561 4.95506 17.6704 5.10498 17.8415C5.24218 18.0212 5.31283 18.2438 5.30468 18.4707C5.30468 19.1844 4.86349 19.5365 3.98113 19.5365H2.46254L2.44861 15.6863ZM2.87121 16.0901V17.3438H3.86503C4.41302 17.3438 4.68702 17.1325 4.68702 16.7146C4.69284 16.6285 4.68053 16.5421 4.65091 16.4612C4.62129 16.3802 4.57503 16.3066 4.51519 16.245C4.32754 16.107 4.09561 16.0451 3.86503 16.0713L2.87121 16.0901ZM2.87121 17.7288V19.1374H4.04151C4.60807 19.1374 4.89135 18.9026 4.89135 18.4331C4.8962 18.3363 4.87953 18.2397 4.84256 18.1503C4.80559 18.0609 4.74927 17.9811 4.67773 17.9166C4.49572 17.777 4.26921 17.7101 4.04151 17.7288H2.87121Z" fill="black"/>
<path d="M6.53916 17.5482H7.4994C7.65413 17.5313 7.81049 17.549 7.95847 17.6C8.10644 17.651 8.24279 17.7343 8.35881 17.8445C8.52628 18.0376 8.61742 18.292 8.61327 18.5547C8.61366 18.6795 8.59584 18.8035 8.56046 18.9225C8.52351 19.0394 8.46471 19.1472 8.38762 19.2393C8.29526 19.3526 8.17582 19.4374 8.04193 19.4845C7.86755 19.5483 7.6837 19.5777 7.4994 19.5713H6.12146V16.5775H6.53436L6.53916 17.5482ZM6.53916 19.1677H7.54741C7.99392 19.1677 8.21957 18.9634 8.21957 18.5547C8.21957 18.146 7.99392 17.9569 7.54741 17.9569H6.53916V19.1677ZM9.38626 19.5713H8.97816V16.5775H9.38626V19.5713Z" fill="black"/>
<path d="M15.0997 19.5722H14.6916V17.3083L13.6714 18.5603L12.6464 17.3083V19.5722H12.243V16.5775H12.4851L13.6714 18.0289L14.853 16.5775H15.0997V19.5722Z" fill="black"/>
<path d="M17.3912 16.5791C17.6748 16.5727 17.9537 16.6525 18.1921 16.8081C18.4138 16.9609 18.585 17.1777 18.6835 17.4303C18.7311 17.5562 18.7593 17.6889 18.767 17.8235C18.7808 17.9425 18.769 18.063 18.7326 18.177H16.3496C16.3436 18.3142 16.3678 18.451 16.4205 18.5776C16.4732 18.7041 16.553 18.8172 16.6542 18.9087C16.8712 19.0971 17.1498 19.1965 17.4354 19.1874C17.787 19.1877 18.1302 19.0782 18.4181 18.8738L18.6442 19.1277C18.3008 19.4137 17.8702 19.5703 17.4256 19.5707C17.2253 19.5798 17.0252 19.5474 16.8377 19.4755C16.6501 19.4037 16.479 19.2938 16.3348 19.1526C16.1949 19.0129 16.0854 18.845 16.0135 18.6598C15.9416 18.4746 15.9088 18.2762 15.9172 18.0774C15.9071 17.6823 16.0519 17.2993 16.3201 17.0122C16.4577 16.8666 16.6245 16.7526 16.8093 16.6779C16.994 16.6032 17.1925 16.5695 17.3912 16.5791ZM17.3912 16.9724C17.2616 16.9677 17.1324 16.989 17.0109 17.0351C16.8895 17.0812 16.7783 17.1513 16.6837 17.2412C16.5915 17.3232 16.5166 17.4233 16.4634 17.5353C16.4102 17.6473 16.3799 17.769 16.3741 17.8932H18.3395C18.3453 17.7784 18.3234 17.664 18.2756 17.5597C18.2056 17.3856 18.0858 17.2365 17.9317 17.1317C17.7707 17.0263 17.5829 16.9709 17.3912 16.9724Z" fill="black"/>
<path d="M21.6293 19.5722H21.2539V18.3968C21.1603 18.5675 21.0274 18.7055 20.8698 18.7956C20.7122 18.8858 20.5359 18.9246 20.3603 18.9078C19.5739 18.9078 19.1807 18.407 19.1807 17.4054V16.5775H19.5605V17.385C19.5391 17.6812 19.6069 17.9769 19.7526 18.2231C19.8373 18.3231 19.941 18.3995 20.0557 18.4465C20.1703 18.4934 20.2929 18.5097 20.4139 18.4939C20.5335 18.5075 20.6543 18.4893 20.7667 18.4405C20.8792 18.3917 20.9802 18.3138 21.0618 18.2128C21.198 18.0057 21.2674 17.7512 21.2584 17.4923V16.5775H21.6293V19.5722Z" fill="black"/>
<path d="M23.8719 16.9915V19.5722H23.4678V16.9915H22.4456V16.5775H24.8942V16.9915H23.8719Z" fill="black"/>
<path d="M28.1589 19.5419H27.8656V18.8843C27.752 19.0926 27.5858 19.2648 27.3847 19.3825C27.1821 19.5102 26.9486 19.5759 26.7115 19.5718C26.524 19.5763 26.3377 19.5401 26.1646 19.4654C25.9915 19.3908 25.8354 19.2794 25.7064 19.1384C25.4416 18.8539 25.2964 18.4724 25.3024 18.0773C25.2964 17.6822 25.4416 17.3006 25.7064 17.0162C25.8351 16.8745 25.9911 16.7623 26.1642 16.6868C26.3372 16.6113 26.5237 16.5742 26.7115 16.5778C26.9454 16.5755 27.1755 16.6392 27.3771 16.762C27.5787 16.8849 27.7443 17.0623 27.856 17.2752V16.6176H28.1493L28.1589 19.5419ZM26.0045 18.8594C26.1987 19.0519 26.4571 19.1593 26.7259 19.1593C26.9946 19.1593 27.253 19.0519 27.4472 18.8594C27.5469 18.7587 27.6254 18.6376 27.6775 18.5038C27.7297 18.37 27.7544 18.2265 27.7502 18.0823C27.7536 17.9382 27.7284 17.7949 27.6763 17.6612C27.6242 17.5276 27.5462 17.4064 27.4472 17.3051C27.2542 17.1103 26.9953 17.0014 26.7259 17.0014C26.4564 17.0014 26.1976 17.1103 26.0045 17.3051C25.9055 17.4064 25.8276 17.5276 25.7754 17.6612C25.7233 17.7949 25.6982 17.9382 25.7016 18.0823C25.6973 18.2265 25.7221 18.37 25.7742 18.5038C25.8264 18.6376 25.9048 18.7587 26.0045 18.8594Z" fill="black"/>
<path d="M30.4506 16.5791C30.7342 16.5721 31.0134 16.6519 31.2516 16.8081C31.4733 16.9609 31.6445 17.1777 31.743 17.4303C31.7907 17.5562 31.8188 17.6889 31.8265 17.8235C31.8391 17.9422 31.8291 18.0622 31.797 18.177H29.4088C29.4028 18.3142 29.4271 18.451 29.4798 18.5776C29.5325 18.7041 29.6123 18.8172 29.7135 18.9087C29.9305 19.0971 30.2092 19.1965 30.4948 19.1874C30.8466 19.1887 31.1901 19.0791 31.4776 18.8738L31.7037 19.1277C31.3607 19.4144 30.9297 19.5711 30.485 19.5707C30.2846 19.5798 30.0845 19.5474 29.897 19.4755C29.7094 19.4037 29.5383 19.2938 29.3941 19.1526C29.2541 19.0129 29.1447 18.845 29.0727 18.6598C29.0008 18.4746 28.968 18.2762 28.9764 18.0774C28.9663 17.6823 29.1112 17.2993 29.3793 17.0122C29.5169 16.8666 29.6837 16.7526 29.8686 16.6779C30.0534 16.6032 30.2518 16.5695 30.4506 16.5791ZM30.4506 16.9724C30.321 16.9677 30.1917 16.989 30.0703 17.0351C29.9488 17.0812 29.8376 17.1513 29.743 17.2412C29.6508 17.3232 29.5759 17.4233 29.5227 17.5353C29.4695 17.6473 29.4391 17.769 29.4334 17.8932H31.399C31.4048 17.7784 31.3828 17.664 31.3351 17.5597C31.2666 17.3846 31.1465 17.2351 30.9911 17.1317C30.8301 17.0263 30.6422 16.9709 30.4506 16.9724Z" fill="black"/>
<path d="M33.669 16.9915V19.5722H33.2593V16.9915H32.2399V16.5775H34.6885V16.9915H33.669Z" fill="black"/>
<path d="M36.5755 16.5791C36.8589 16.5727 37.1377 16.6525 37.3759 16.8081C37.5974 16.9609 37.7685 17.1777 37.8669 17.4304C37.9146 17.5563 37.9427 17.689 37.9504 17.8236C37.9592 17.9426 37.9476 18.0622 37.916 18.1771H35.5395C35.5335 18.3143 35.5577 18.4511 35.6104 18.5777C35.663 18.7043 35.7428 18.8174 35.8439 18.9088C36.059 19.0969 36.3358 19.1964 36.6197 19.1876C36.9711 19.1876 37.3139 19.0781 37.6018 18.874L37.8277 19.1279C37.483 19.4146 37.0509 19.5712 36.605 19.5709C36.4056 19.5793 36.2066 19.5466 36.0201 19.4747C35.8335 19.4029 35.6634 19.2933 35.5199 19.1527C35.3794 19.0133 35.2692 18.8456 35.1965 18.6604C35.1238 18.4752 35.0901 18.2767 35.0976 18.0775C35.0888 17.6817 35.2354 17.2985 35.5051 17.0122C35.6426 16.8666 35.8093 16.7526 35.994 16.6779C36.1786 16.6032 36.3769 16.5695 36.5755 16.5791ZM36.5755 16.9724C36.3127 16.9643 36.0572 17.0608 35.8636 17.2412C35.773 17.3242 35.6995 17.4246 35.6473 17.5365C35.595 17.6484 35.5651 17.7697 35.5591 17.8933H37.5232C37.5265 17.7787 37.5047 17.6648 37.4594 17.5598C37.3894 17.3856 37.2697 17.2366 37.1157 17.1317C36.9548 17.0263 36.7671 16.971 36.5755 16.9724Z" fill="black"/>
<path d="M39.1776 18.7166L38.6707 20H38.3615L38.7163 18.7166H39.1776Z" fill="black"/>
<path d="M44.891 19.5722H44.4836V17.3083L43.4603 18.5603L42.4417 17.3083V19.5722H42.0343V16.5775H42.2806L43.4603 18.0289L44.6447 16.5775H44.891V19.5722Z" fill="black"/>
<path d="M46.125 17.5482H47.0852C47.24 17.531 47.3964 17.5485 47.5444 17.5995C47.6924 17.6506 47.8288 17.7341 47.9446 17.8446C48.1121 18.0377 48.2032 18.292 48.1991 18.5547C48.2018 18.6797 48.184 18.8042 48.1463 18.9226C48.1092 19.0384 48.0522 19.1458 47.9782 19.2393C47.8841 19.3506 47.7653 19.4349 47.6325 19.4846C47.4564 19.5479 47.2711 19.5773 47.0852 19.5715H45.7073V16.5775H46.1202L46.125 17.5482ZM46.125 19.1678H47.1284C47.5749 19.1678 47.8006 18.9635 47.8006 18.5547C47.8006 18.146 47.5749 17.957 47.1284 17.957H46.125V19.1678ZM48.9721 19.5715H48.5592V16.5775H48.9721V19.5715Z" fill="black"/>
<path d="M51.8287 16.5818H53.2653C53.5037 16.5579 53.7416 16.6345 53.9297 16.7958C54.0024 16.8655 54.0599 16.952 54.0979 17.0489C54.1359 17.1459 54.1536 17.2508 54.1497 17.3562C54.1613 17.4987 54.1271 17.6412 54.0528 17.7593C53.9785 17.8773 53.8689 17.9636 53.7426 18.0032C53.898 18.0284 54.039 18.1162 54.1378 18.2492C54.2366 18.3823 54.2859 18.5508 54.276 18.7215C54.2827 18.8409 54.2642 18.9603 54.2221 19.0706C54.1799 19.181 54.1151 19.2794 54.0327 19.3584C53.8089 19.5191 53.5417 19.5927 53.2746 19.5673H51.8287V16.5818ZM52.2218 16.9537V17.8555H53.2419C53.5741 17.8555 53.7426 17.7077 53.7426 17.4071C53.7426 17.1065 53.5741 16.9537 53.2372 16.9537H52.2218ZM52.2218 19.2004H53.284C53.6724 19.2004 53.8689 19.0323 53.8689 18.691C53.8689 18.3496 53.6724 18.1815 53.284 18.1815H52.2218V19.2004Z" fill="black"/>
<path d="M56.1139 16.5775C56.4927 16.5775 56.856 16.7353 57.1238 17.016C57.3917 17.2968 57.5421 17.6776 57.5421 18.0747C57.5421 18.4718 57.3917 18.8526 57.1238 19.1334C56.856 19.4141 56.4927 19.5719 56.1139 19.5719C55.9255 19.5759 55.7384 19.5394 55.564 19.4647C55.3896 19.3901 55.2316 19.2788 55.0998 19.1377C54.9659 18.999 54.8602 18.8333 54.789 18.6506C54.7178 18.4679 54.6826 18.272 54.6856 18.0747C54.6856 17.6776 54.8361 17.2968 55.1039 17.016C55.3718 16.7353 55.7351 16.5775 56.1139 16.5775ZM56.1139 16.9867C55.9799 16.9852 55.8471 17.0123 55.7235 17.0663C55.5999 17.1204 55.4881 17.2003 55.395 17.3012C55.2969 17.4026 55.2198 17.524 55.1682 17.6579C55.1166 17.7918 55.0917 17.9353 55.095 18.0797C55.0908 18.2242 55.1153 18.368 55.167 18.502C55.2186 18.636 55.2962 18.7573 55.395 18.8582C55.4873 18.9599 55.5991 19.04 55.7229 19.0933C55.8468 19.1466 55.98 19.172 56.1139 19.1677C56.2503 19.1697 56.3856 19.1429 56.5119 19.0888C56.6382 19.0347 56.7528 18.9545 56.8488 18.8529C56.9448 18.7514 57.0203 18.6305 57.0707 18.4977C57.1211 18.3648 57.1454 18.2226 57.1422 18.0797C57.1456 17.9353 57.1207 17.7918 57.0691 17.6579C57.0175 17.524 56.9403 17.4026 56.8423 17.3012C56.7467 17.1981 56.6318 17.1169 56.5048 17.0627C56.3778 17.0086 56.2414 16.9827 56.1043 16.9867H56.1139Z" fill="black"/>
<path d="M60.8069 19.5722H60.421V16.9915H58.7534V19.5722H58.3583V16.5775H60.7977L60.8069 19.5722Z" fill="black"/>
<path d="M63.0419 17.2521L62.0526 19.5722H61.6232L62.9261 16.5775H63.1722L64.4799 19.5722H64.0359L63.0419 17.2521Z" fill="black"/>
<path d="M66.323 16.5775C66.5578 16.5798 66.7886 16.6422 66.9949 16.7592C67.2013 16.8762 67.377 17.0443 67.5065 17.2488C67.6361 17.4532 67.7156 17.6877 67.7381 17.9317C67.7605 18.1756 67.7252 18.4216 67.6353 18.6481C67.5454 18.8745 67.4036 19.0744 67.2224 19.2303C67.0411 19.3862 66.826 19.4933 66.5958 19.5421C66.3657 19.591 66.1276 19.5801 65.9024 19.5106C65.6772 19.441 65.4718 19.3148 65.3042 19.143C65.1697 19.0043 65.0635 18.8386 64.992 18.6559C64.9205 18.4731 64.8851 18.2772 64.8881 18.0799C64.8881 17.6827 65.0393 17.3019 65.3084 17.0211C65.5775 16.7403 65.9424 16.5825 66.323 16.5825V16.5775ZM66.323 16.9868C66.1884 16.9847 66.0548 17.0115 65.9305 17.0656C65.8063 17.1197 65.694 17.1999 65.6008 17.3012C65.4056 17.5093 65.2963 17.7888 65.2963 18.0799C65.2963 18.371 65.4056 18.6505 65.6008 18.8585C65.7939 19.0513 66.0509 19.1589 66.3182 19.1589C66.5855 19.1589 66.8425 19.0513 67.0356 18.8585C67.1348 18.7576 67.2128 18.6363 67.2647 18.5022C67.3166 18.3682 67.3412 18.2244 67.337 18.0799C67.3403 17.9355 67.3153 17.7919 67.2635 17.658C67.2117 17.5241 67.1341 17.4027 67.0356 17.3012C66.9424 17.2012 66.8309 17.1218 66.7076 17.0678C66.5843 17.0138 66.4519 16.9862 66.3182 16.9868H66.323Z" fill="black"/>
<path d="M73.0499 20H72.6532V19.3786H68.5608V16.5775H68.9574V18.9962H70.3574V16.5775H70.7587V18.9962H72.1586V16.5775H72.5552V18.9962H73.0499V20Z" fill="black"/>
<path d="M76.3147 19.5419H76.0214V18.8843C75.9092 19.0937 75.7426 19.2663 75.5405 19.3825C75.3378 19.5102 75.1044 19.5759 74.8672 19.5718C74.6797 19.5763 74.4934 19.5401 74.3203 19.4654C74.1472 19.3908 73.9911 19.2794 73.8621 19.1384C73.5974 18.8539 73.4521 18.4724 73.4582 18.0773C73.4521 17.6822 73.5974 17.3006 73.8621 17.0162C73.9909 16.8745 74.1468 16.7623 74.3199 16.6868C74.493 16.6113 74.6794 16.5742 74.8672 16.5778C75.1011 16.5755 75.3312 16.6392 75.5329 16.762C75.7345 16.8849 75.9 17.0623 76.0117 17.2752V16.6176H76.3051L76.3147 19.5419ZM74.1603 18.8594C74.3545 19.0519 74.6129 19.1593 74.8816 19.1593C75.1504 19.1593 75.4088 19.0519 75.603 18.8594C75.7027 18.7587 75.7811 18.6376 75.8333 18.5038C75.8854 18.37 75.9102 18.2265 75.9059 18.0823C75.9093 17.9382 75.8842 17.7949 75.8321 17.6612C75.78 17.5276 75.702 17.4064 75.603 17.3051C75.4099 17.1103 75.1511 17.0014 74.8816 17.0014C74.6122 17.0014 74.3533 17.1103 74.1603 17.3051C74.0613 17.4064 73.9833 17.5276 73.9312 17.6612C73.8791 17.7949 73.854 17.9382 73.8573 18.0823C73.8531 18.2265 73.8778 18.37 73.93 18.5038C73.9821 18.6376 74.0606 18.7587 74.1603 18.8594Z" fill="black"/>
<path d="M78.6088 16.5794C78.892 16.5724 79.1707 16.6521 79.4085 16.8083C79.6311 16.9597 79.8023 17.1769 79.899 17.4305C79.9466 17.5564 79.9747 17.689 79.9824 17.8237C79.995 17.9423 79.985 18.0623 79.953 18.1771H77.5689C77.5629 18.3143 77.5871 18.4511 77.6397 18.5776C77.6923 18.7042 77.772 18.8173 77.873 18.9087C78.0896 19.0971 78.3678 19.1966 78.653 19.1874C79.0039 19.1868 79.3462 19.0774 79.6341 18.8739L79.8549 19.1277C79.5125 19.4145 79.0822 19.5711 78.6383 19.5707C78.4383 19.5798 78.2385 19.5474 78.0513 19.4756C77.864 19.4037 77.6932 19.2938 77.5492 19.1526C77.4095 19.0129 77.3003 18.8451 77.2284 18.6599C77.1566 18.4747 77.1239 18.2763 77.1323 18.0775C77.1222 17.6824 77.2668 17.2994 77.5345 17.0124C77.6724 16.8661 77.8398 16.7518 78.0252 16.677C78.2106 16.6023 78.4096 16.569 78.6088 16.5794ZM78.6088 16.9726C78.4794 16.9679 78.3504 16.9892 78.2292 17.0353C78.1079 17.0814 77.9969 17.1515 77.9024 17.2413C77.8104 17.3234 77.7356 17.4234 77.6825 17.5355C77.6295 17.6475 77.5991 17.7692 77.5934 17.8934H79.5556C79.5614 17.7786 79.5395 17.6641 79.4918 17.5599C79.4235 17.3848 79.3036 17.2353 79.1485 17.1318C78.9877 17.0265 78.8002 16.9711 78.6088 16.9726Z" fill="black"/>
<path d="M83.6605 19.5722H83.2572V17.3083L82.2322 18.5603L81.2072 17.3083V19.5722H80.8038V16.5775H81.0458L82.2322 18.0289L83.4185 16.5775H83.6605V19.5722Z" fill="black"/>
<path d="M85.378 15.2941L84.8422 16.5775H84.4767L84.8372 15.2941H85.378ZM86.1091 15.2941L85.5733 16.5775H85.2078L85.5683 15.2941H86.1091Z" fill="black"/>
<path d="M0 16.5775L0.535788 15.2941H0.901326L0.540795 16.5775H0ZM0.731075 16.5775L1.26686 15.2941H1.6324L1.27187 16.5775H0.731075Z" fill="black"/>
</svg>
