<svg width="14" height="21" viewBox="0 0 14 21" fill="none" xmlns="http://www.w3.org/2000/svg">
<path fill-rule="evenodd" clip-rule="evenodd" d="M7.3458 20.0475C9.64256 17.0459 14 11.351 14 7.61744C14 3.68659 10.866 0.5 7 0.5C3.13401 0.5 0 3.68659 0 7.61744C0 11.5483 4.55 17.4395 7 20.5C7.10889 20.3571 7.22447 20.2061 7.3458 20.0475ZM7 11.1762C8.93299 11.1762 10.5 9.58286 10.5 7.61743C10.5 5.65201 8.93299 4.05872 7 4.05872C5.067 4.05872 3.5 5.65201 3.5 7.61743C3.5 9.58286 5.067 11.1762 7 11.1762Z" fill="#050103"/>
</svg>
